<svg width="1200" height="1200" viewBox="0 0 1200 1200" fill="none" xmlns="http://www.w3.org/2000/svg">
  <defs>
    <linearGradient id="uGradient" x1="252" y1="315" x2="932" y2="932" gradientUnits="userSpaceOnUse">
      <stop offset="0" stop-color="#0E74B8"/>
      <stop offset="1" stop-color="#0D9F8A"/>
    </linearGradient>
    <linearGradient id="flowGradient" x1="272" y1="302" x2="894" y2="498" gradientUnits="userSpaceOnUse">
      <stop offset="0" stop-color="#0E74B8"/>
      <stop offset="1" stop-color="#F4A300"/>
    </linearGradient>
    <filter id="shadow" x="88" y="88" width="1024" height="1024" filterUnits="userSpaceOnUse" color-interpolation-filters="sRGB">
      <feDropShadow dx="0" dy="16" stdDeviation="28" flood-color="#16324F" flood-opacity="0.12"/>
    </filter>
  </defs>

  <rect width="1200" height="1200" fill="#F7F3E8"/>

  <g filter="url(#shadow)">
    <rect x="124" y="124" width="952" height="952" rx="212" fill="#FFFCF4"/>
    <rect x="124" y="124" width="952" height="952" rx="212" stroke="#16324F" stroke-width="24"/>
  </g>

  <g opacity="0.65">
    <path d="M225 822C312 768 403 760 500 798C594 835 688 833 783 791" stroke="#AABFD2" stroke-width="10" stroke-linecap="round"/>
    <path d="M225 874C316 818 411 812 508 850C598 886 688 884 783 842" stroke="#C8D7E3" stroke-width="10" stroke-linecap="round"/>
    <path d="M225 926C323 869 422 864 519 904C608 940 695 939 783 894" stroke="#DCE5EC" stroke-width="10" stroke-linecap="round"/>
  </g>

  <g opacity="0.22" stroke="#16324F" stroke-width="8">
    <path d="M258 722H534"/>
    <path d="M258 798H596"/>
    <path d="M258 874H548"/>
    <path d="M318 662V922"/>
    <path d="M408 662V938"/>
    <path d="M498 700V930"/>
  </g>

  <g>
    <path d="M252 360C252 291.516 307.516 236 376 236H436V714C436 814.516 517.484 896 618 896C718.516 896 800 814.516 800 714V236H860C928.484 236 984 291.516 984 360V714C984 916.688 820.688 1080 618 1080C415.312 1080 252 916.688 252 714V360Z" fill="url(#uGradient)"/>
    <path d="M528 320H708V711C708 760.153 668.153 800 619 800C569.847 800 530 760.153 530 711L528 320Z" fill="#FFFCF4"/>
  </g>

  <g>
    <circle cx="344" cy="350" r="24" fill="#16324F"/>
    <circle cx="344" cy="714" r="24" fill="#16324F"/>
    <circle cx="896" cy="350" r="24" fill="#16324F"/>
    <circle cx="896" cy="714" r="24" fill="#16324F"/>
    <circle cx="620" cy="896" r="24" fill="#16324F"/>
  </g>

  <g>
    <path d="M304 410C414 254 632 218 814 288C879 313 941 352 986 410" stroke="url(#flowGradient)" stroke-width="28" stroke-linecap="round"/>
    <path d="M944 362L999 411L931 434" fill="none" stroke="#F4A300" stroke-width="28" stroke-linecap="round" stroke-linejoin="round"/>
  </g>

  <g transform="translate(244 210)">
    <circle cx="76" cy="76" r="30" fill="#F4A300"/>
    <g stroke="#F4A300" stroke-width="14" stroke-linecap="round">
      <path d="M76 4V28"/>
      <path d="M76 124V148"/>
      <path d="M4 76H28"/>
      <path d="M124 76H148"/>
      <path d="M22 22L39 39"/>
      <path d="M113 113L130 130"/>
      <path d="M22 130L39 113"/>
      <path d="M113 39L130 22"/>
    </g>
  </g>

  <g opacity="0.16">
    <circle cx="828" cy="848" r="132" stroke="#0E74B8" stroke-width="10"/>
    <circle cx="828" cy="848" r="184" stroke="#0E74B8" stroke-width="10"/>
    <circle cx="828" cy="848" r="236" stroke="#0E74B8" stroke-width="10"/>
  </g>
</svg>
